PathFileType	4	(X/Y/Z)	F:\MotionCapture\20160217\3\Generated_files\EMG_Fprce_test01-Dynamic.trc
DataRate	CameraRate	NumFrames	NumMarkers	Units	OrigDataRate	OrigDataStartFrame	OrigNumFrames
120.00	120.00	       6	39	mm	120.00	214	       569
Frame#	Time	Top.Head			Front.Head			Rear.Head			R.Shoulder			R.Offset			R.Elbow			R.Wrist			L.Shoulder			L.Elbow			L.Wrist			R.ASIS			L.ASIS			V.Sacral			R.Thigh			R.Knee			R.Shank			R.Ankle			R.Heel			R.Toe			L.Thigh			L.Knee			L.Shank			L.Ankle			L.Heel			L.Toe			R1			R2			R3			R4			R5			R6			R7			L1			L2			L3			L4			L5			L6			L7			V_Mid_ASIS			V_Pelvis_Origin			V_R.Hip_JC			V_L.Hip_JC			V_R.Knee_JC			V_L.Knee_JC			V_R.Ankle_JC			V_L.Ankle_JC			V_Mid_Hip			V_Mid_Shoulder			V_R.Hand			V_L.Hand			V_R.Toe_Offset_Static			V_L.Toe_Offset_Static			V_R.Toe_Offset			V_L.Toe_Offset			
		X1	Y1	Z1	X2	Y2	Z2	X3	Y3	Z3	X4	Y4	Z4	X5	Y5	Z5	X6	Y6	Z6	X7	Y7	Z7	X8	Y8	Z8	X9	Y9	Z9	X10	Y10	Z10	X11	Y11	Z11	X12	Y12	Z12	X13	Y13	Z13	X14	Y14	Z14	X15	Y15	Z15	X16	Y16	Z16	X17	Y17	Z17	X18	Y18	Z18	X19	Y19	Z19	X20	Y20	Z20	X21	Y21	Z21	X22	Y22	Z22	X23	Y23	Z23	X24	Y24	Z24	X25	Y25	Z25	X26	Y26	Z26	X27	Y27	Z27	X28	Y28	Z28	X29	Y29	Z29	X30	Y30	Z30	X31	Y31	Z31	X32	Y32	Z32	X33	Y33	Z33	X34	Y34	Z34	X35	Y35	Z35	X36	Y36	Z36	X37	Y37	Z37	X38	Y38	Z38	X39	Y39	Z39	

214	1.775	1120.46204	52.08807	1731.63098	1002.18323	45.05543	1659.61890	1221.61853	49.03326	1652.54028	1158.54834	239.61980	1420.12769	1288.43555	-31.42585	1286.36707	1220.53052	339.73297	1100.92395	1086.10669	330.63486	872.61353	1124.92261	-168.71196	1428.67053	1172.11536	-275.53479	1111.12488	1082.38953	-299.96167	870.76129				1088.03772	-112.18479	947.66840	1320.23181	19.10063	952.16840	1035.97815	215.72755	488.66245	978.03107	176.46619	610.70093							1373.70251	89.27891	223.20476	1235.53528	162.18167	80.80221	1045.23901	-55.36113	628.18890	1128.71606	-105.89613	466.12451	1125.46130	-25.60885	327.74884	1201.23865	-85.35884	61.84657	1269.40210	-31.20692	45.39170	1063.01392	-74.93684	44.03575	1198.47278	155.48857	55.93044	1220.73682	128.69287	81.74694	1271.16504	85.11674	155.30701	1333.10608	68.34216	191.99680	1361.68323	138.00650	203.59840	1317.44043	176.86499	143.40596	1274.67676	193.25598	96.12093	1020.59064	-46.10753	41.29115	1052.53320	-35.31294	46.37883	1147.91797	5.09014	50.21029	1231.83472	2.30168	45.83772	1242.19348	-71.39709	44.66843	1166.22986	-96.16429	36.16050	1101.99646	-107.49002	40.76239																																																	1779.58704	-12.79391	-28.65274	1160.10095	123.74963	293.81696	1319.41919	166.45958	201.95998	1105.54114	175.75836	948.90222	1496.42480	118.13265	-70.04395	
215	1.783	1110.04126	52.14278	1731.72791	991.47839	44.75192	1659.56824	1211.34314	48.70555	1652.63440	1148.48474	238.99921	1419.76318	1278.38062	-32.30627	1286.69690	1212.91187	339.02509	1101.36060	1084.67444	332.02362	869.87457	1114.53491	-168.88506	1429.02625	1156.04175	-275.14841	1110.16394	1061.17200	-297.16757	871.58716				1078.80591	-113.03591	947.54895	1311.18884	19.71159	952.79834	1018.61194	214.62616	491.56738	963.14520	175.06195	614.91388							1346.58716	89.09684	213.41096	1201.72827	159.94670	77.95657	1040.29321	-56.18523	626.53943	1125.77234	-106.22450	465.25385	1123.98340	-25.78866	326.76520	1201.14880	-85.19695	61.82772	1269.42505	-31.11730	45.44925	1062.89465	-74.88580	43.94946	1162.88831	152.66814	55.03257	1187.47119	126.03613	79.18389	1242.04700	83.56040	150.92287	1304.65649	67.99106	184.02684	1333.81250	137.44026	194.42096	1286.38635	175.92435	136.39355	1240.96399	191.36021	91.55426	1020.63025	-46.06602	40.98630	1052.40076	-35.36518	46.16368	1147.41003	5.23230	49.96751	1232.08398	2.39836	45.39863	1240.77600	-70.27335	43.46292	1166.20691	-96.02952	36.11776	1102.03882	-107.49798	40.70546																																																	1136.52734	122.59569	293.04434	1291.68152	165.51839	194.74429	1095.51904	174.34593	950.27661	1487.60547	113.68593	-72.66333	1042.18164	-70.64745	-80.24609	
216	1.792	1098.93066	52.27907	1731.12756	980.49084	45.15555	1658.86328	1200.57581	48.76656	1652.53394	1138.76538	238.90361	1419.36938	1268.71033	-32.87378	1286.87891	1205.47961	338.39340	1101.60132	1082.49756	333.71967	867.23480	1103.86914	-169.42708	1429.10095	1140.80945	-275.09912	1109.25488	1041.34497	-294.16644	872.41168				1070.11035	-114.27198	947.23706	1301.64258	20.30285	952.86548	1001.58221	213.99828	494.49738	948.07874	173.65224	619.04358							1319.24304	89.79098	202.75862	1167.07800	157.97594	75.47137	1035.14783	-56.44141	625.02228	1122.65356	-106.35099	464.65820	1122.67773	-25.54614	326.40311	1200.97070	-84.93346	61.77795	1268.73804	-31.43226	45.15855	1062.75745	-74.97712	43.86012	1127.11646	150.12466	54.62128	1153.20618	124.00237	77.30445	1211.50793	82.46800	145.79315	1276.03711	67.58904	176.21103	1305.85913	137.32950	184.91776	1254.41821	174.88126	128.50540	1206.38440	189.56854	86.65901	1020.08978	-46.06923	40.65603	1051.94849	-35.40362	46.13304	1147.45935	5.43725	49.71839	1231.55518	2.61790	45.63657	1241.49329	-70.65701	44.42661	1166.15381	-96.00419	36.19477	1102.05066	-107.50558	40.70366																																																	1112.31799	121.13403	291.77069	1262.77429	164.68948	186.39828	1085.62427	173.32790	951.51160	1012.44006	-63.93139	-76.52769	
217	1.800	1088.28381	52.73394	1730.85779	969.91650	45.45545	1658.40283	1190.06274	49.08696	1652.31079	1128.65210	238.46935	1418.55225	1258.84375	-33.70906	1287.06738	1198.39246	337.88034	1101.77563	1081.32629	335.49802	864.69647	1093.11340	-169.02274	1429.01086	1125.46680	-275.20303	1108.21582	1020.53162	-291.03012	873.18365				1061.51953	-114.98714	946.47784	1292.36694	21.00542	953.24725	985.01251	212.84198	497.06561	933.57733	172.31664	622.79761							1291.78870	89.37377	192.22571	1133.00366	156.16449	72.63310	1029.51550	-56.50201	623.51123	1119.45166	-106.64830	464.13477	1120.34912	-25.41187	325.72357	1200.81262	-84.60402	61.73241	1268.68091	-31.21390	45.46564	1062.63391	-75.11211	43.71789	1091.59985	148.18022	54.25717	1120.73364	123.02632	75.47448	1180.85657	81.49149	140.85997	1247.72266	67.65966	167.22716	1275.33765	136.13756	173.23773	1222.42603	174.14685	120.51816	1172.69958	188.52390	81.16528	1020.24432	-46.12350	40.20860	1051.77783	-35.44566	45.99259	1147.25696	5.68699	49.62175	1231.50098	2.65153	45.59444	1240.49585	-70.02138	43.84643	1166.14673	-95.94138	36.15803	1102.04102	-107.53056	40.62784																																																	1151.44592	165.66179	76.80135	1088.38123	119.95911	290.17038	1233.88330	164.30406	178.21150	1075.32764	172.38239	951.98956	1530.15588	130.04355	-82.63265	1657.61865	57.51158	-147.56006	1697.91467	-22.33813	-13.21383	
218	1.808	1077.67517	52.83751	1730.07043	959.25494	45.80447	1657.45886	1179.73193	48.85834	1651.89783	1118.91724	238.59697	1417.98584	1248.82153	-34.47741	1286.71814	1190.72595	337.26877	1101.57813	1079.11169	337.05399	862.13507	1082.90552	-169.33083	1428.64819	1109.30249	-274.58713	1106.97717	999.47498	-287.54895	874.40302				1051.88745	-116.04594	945.82599	1282.91882	21.63966	953.01160	968.56006	211.42569	499.04532	919.54529	170.94423	625.88708							1263.47559	89.05442	181.75215	1099.75659	154.47121	69.67847	1024.44055	-56.21920	621.53735	1115.98914	-106.34664	463.18521	1118.42908	-25.55244	325.23099	1200.81128	-84.48431	61.85292	1268.58533	-30.86750	45.65188	1062.42456	-75.20050	43.52875	1056.30859	146.63589	53.95201	1084.87292	121.47394	73.85625	1149.67310	80.48763	135.89185	1218.65552	67.93948	158.04800	1246.94763	136.57211	163.81242	1189.31042	173.58864	113.30636	1138.50671	187.36502	76.49512	1019.61230	-46.15697	40.04201	1051.62622	-35.46396	45.91825	1147.17676	6.00408	49.22660	1231.43689	2.72597	45.65317	1240.44189	-69.87383	44.01342	1166.04688	-95.80798	36.14151	1102.04456	-107.54072	40.59713																																																	1063.90686	119.06443	288.15561	1204.15759	163.90205	169.93394	1064.92065	171.62215	952.49817	1527.44373	126.93967	-87.40132	2047.21863	19.55350	-58.93469	1649.51770	53.36641	-148.91859	
219	1.817	1066.95081	53.17044	1729.30908	948.68512	45.96100	1656.08496	1168.65210	49.17088	1651.37549	1109.03418	238.13922	1416.80713	1238.59875	-34.81367	1286.20239	1183.43701	336.89349	1101.48792	1077.40234	338.59726	859.74573	1072.26978	-169.41895	1428.26172	1093.59521	-274.22855	1105.74390	979.38556	-284.27875	875.54376				1042.86279	-116.69924	945.24921	1273.19080	22.43472	952.46405	952.46808	210.36223	500.86008	905.44812	169.48341	628.79303							1234.33435	89.10466	170.26404	1064.28198	154.11517	67.84461	1018.60718	-55.79271	619.71960	1112.60767	-106.57089	462.48694	1116.24988	-25.22845	324.44907	1200.80005	-84.26817	61.95004	1268.63098	-30.80951	46.20253	1062.14917	-75.28707	43.34875	1019.97632	145.91225	54.70694	1050.32678	120.35939	71.95374	1118.66174	79.83545	130.58295	1188.19214	67.22469	149.19429	1215.87366	136.37611	153.38933	1156.56958	173.13452	105.52642	1103.85999	186.64255	71.80364	1019.06537	-46.29612	39.76181	1051.33008	-35.31884	45.66069	1146.88049	6.15756	48.56878	1231.36951	2.87010	45.66891	1240.30249	-69.65234	44.35281	1165.93713	-95.62911	36.07689	1102.02942	-107.49590	40.58881																																																	1039.86230	118.07925	286.26685	1174.17847	163.13788	162.14494	1055.59216	170.90810	952.28552	2030.10571	17.86649	-63.40982	1579.13477	32.23084	-122.94476	
